<?xml version="1.0" encoding="UTF-8"?>
<!DOCTYPE svg PUBLIC "-//W3C//DTD SVG 1.1//EN" "http://www.w3.org/Graphics/SVG/1.1/DTD/svg11.dtd">
<!-- Creator: CorelDRAW (Evaluation Version) -->
<svg xmlns="http://www.w3.org/2000/svg" xml:space="preserve" width="254mm" height="127mm" version="1.1" style="shape-rendering:geometricPrecision; text-rendering:geometricPrecision; image-rendering:optimizeQuality; fill-rule:evenodd; clip-rule:evenodd"
viewBox="0 0 25400 12700"
 xmlns:xlink="http://www.w3.org/1999/xlink"
 xmlns:xodm="http://www.corel.com/coreldraw/odm/2003">
 <defs>
  <style type="text/css">
   <![CDATA[
    .fil0 {fill:#2B2A29}
   ]]>
  </style>
 </defs>
 <g id="Layer_x0020_1">
  <metadata id="CorelCorpID_0Corel-Layer"/>
  <path class="fil0" d="M12203.34 537.36c1638.35,0 2966.91,1261.54 2966.91,2817.2 0,1555.7 -1328.56,2817.24 -2966.91,2817.24 -1638.32,0 -2966.89,-1261.54 -2966.89,-2817.24 0,-1555.66 1328.57,-2817.2 2966.89,-2817.2zm0 252.29c1491.64,0 2701.22,1148.56 2701.22,2564.91 0,1416.39 -1209.58,2564.95 -2701.22,2564.95 -1491.61,0 -2701.2,-1148.56 -2701.2,-2564.95 0,-1416.35 1209.59,-2564.91 2701.2,-2564.91zm0 302.74c1315.58,0 2382.39,1012.99 2382.39,2262.17 0,1075.55 -790.79,1975.92 -1850.32,2205.48 -149.95,-102.22 -226.26,-229.5 -228.88,-381.86l0 -2162.82c483.11,-213.41 1263.41,-17.71 1465.71,557.36l136.69 29.24c98.06,40.99 78.56,-29.96 63.64,-92.62 -56.01,-243.01 -56.83,-489.23 -51,-745.35 -5.45,-41.05 -17.57,-70.89 -76.82,-68.26 -1213.83,53.67 -2435.92,53.67 -3649.75,0 -59.25,-2.63 -71.37,27.21 -76.82,68.26 5.83,256.12 5.04,502.34 -50.97,745.35 -14.91,62.66 -34.42,133.61 63.64,92.62l136.73 -29.24c202.3,-575.07 982.53,-770.77 1465.64,-557.36l0 2162.82c-2.69,154.98 -81.52,284.03 -236.62,387.11 -1072.16,-220.65 -1875.63,-1126.66 -1875.63,-2210.73 0,-1249.18 1066.82,-2262.17 2382.37,-2262.17zm-7376.94 6747c-1.62,28.23 -5.73,47.61 -10.6,58.1 -5.77,10.49 -22.06,17.77 -49.03,22.62 -59.63,12.1 -98.89,-9.7 -117.67,-66.19 -68.64,-209.87 -150.34,-349.47 -244.32,-418.91 -130.72,-96.03 -359.47,-144.46 -687.11,-144.46 -132.38,0 -205.09,14.53 -217.35,42.79 -4.9,9.67 -7.36,22.59 -7.36,40.36l0 2357.54c0,100.88 23.69,171.11 71.93,211.47 47.37,40.33 142.98,76.66 284.3,109.74 61.29,12.91 95.61,21.8 102.96,26.65 22.86,13.71 31.08,43.57 24.52,89.57 -4.91,36.33 -22.89,55.71 -53.11,58.92 -3.28,1.64 -35.97,-0.79 -98.02,-7.25 -420.79,-36.32 -768.87,-37.93 -1043.4,-4.85 -65.36,8.07 -107.87,8.07 -126.69,0 -16.29,-7.24 -26.93,-26.62 -31.83,-56.49 -12.26,-50.03 15.54,-83.93 84.14,-101.7 137.29,-34.69 229.58,-76.65 277.82,-125.08 53.93,-54.88 80.9,-144.49 80.9,-267.17l0 -2291.35c0,-46.03 -28.63,-72.65 -85.81,-80.72 -6.56,-1.61 -53.1,-2.43 -141.35,-2.43 -303.13,0 -526.18,52.46 -669.98,156.59 -108.66,76.65 -205.1,218.72 -290.07,425.33 -26.94,64.56 -64.54,86.36 -111.94,63.77 -54.73,-12.1 -74.34,-41.96 -60.43,-87.18 56.35,-170.29 84.15,-410.81 84.15,-721.55 0,-36.3 48.99,-50.85 146.26,-44.39 344.76,21.8 725.53,33.11 1143.87,33.11 791.7,0 1304.82,-16.16 1539.33,-47.64 89.05,-12.92 138.08,1.61 146.26,42.79 44.09,209.83 64.53,451.99 59.63,728.01zm1523.24 -702.18c0,39.54 -42.51,71.84 -129.14,96.85 -192.8,56.49 -289.2,130.75 -289.2,221.96l0 2301.06c0,148.49 88.25,238.09 265.55,269.56 87.42,16.13 131.55,46.82 131.55,92 0,39.54 -7.39,63.77 -22.89,73.44 -14.71,9.71 -56.38,12.92 -123.4,9.71 -420.76,-17.77 -746.77,-17.77 -976.35,0 -58.84,4.82 -93.16,-6.46 -102.96,-33.12 -3.28,-11.28 -4.91,-27.44 -4.91,-50.03 0,-31.47 35.95,-54.88 107.87,-71.01 134,-29.87 211.62,-50.85 232.03,-63.77 51.48,-31.48 76.79,-96.03 76.79,-193.7l0 -2319.61c0,-130.75 -89.05,-211.47 -267.97,-241.34 -75.17,-12.1 -112.77,-35.51 -112.77,-68.59 0,-45.21 5.73,-73.47 17.99,-83.96 12.25,-9.67 40.01,-12.89 84.97,-8.07 311.27,33.12 633.24,29.87 964.92,-9.67 62.11,-7.28 98.89,-9.7 110.35,-6.46 25.31,7.25 37.57,35.51 37.57,84.75zm3087.69 2329.28c6.56,288.16 -17.16,530.29 -69.43,725.59 -9.81,36.33 -58.84,50.85 -146.26,42.79 -336.61,-28.26 -721.46,-42.79 -1153.68,-42.79 -624.24,0 -1039.3,8.07 -1245.19,23.41 -87.42,8.07 -140.56,-2.43 -160.14,-33.08 -17.16,-37.15 -3.28,-86.36 43.3,-146.09 777.02,-983.85 1433.95,-1861.99 1969.92,-2634.39 20.41,-29.87 31.05,-49.21 31.05,-58.92 0,-25.01 -70.27,-37.93 -210.8,-37.93l-583.38 0c-309.68,0 -531.91,45.21 -665.91,134.78 -107.04,71.05 -204.23,212.29 -291.66,422.94 -26.17,63.74 -64.56,83.93 -117.67,62.13 -50.69,-11.28 -70.26,-39.54 -57.18,-85.54 55.56,-220.35 83.29,-461.66 83.29,-723.16 0,-34.72 50.68,-49.24 151.19,-42.79 343.14,21.81 741.87,33.09 1196.98,33.09 440.41,0 783.55,-8.07 1028.66,-23.41 83.35,-4.82 130.72,4.03 141.36,28.26 14.71,29.87 0,72.62 -42.47,127.5 -721.46,901.55 -1365.34,1757.07 -1932.36,2565.8 -28.59,40.36 -42.47,72.66 -42.47,94.43 0,36.32 43.3,58.13 131.52,66.19 211.62,15.35 486.19,23.41 823.63,23.41 339.86,0 569.47,-37.93 688.76,-113.01 102.14,-65.38 187.9,-205.8 256.55,-423.73 18.78,-59.7 56.38,-82.32 111.94,-68.59 38.39,9.67 58.83,37.12 60.45,83.11zm3087.05 0c6.56,288.16 -17.16,530.29 -69.44,725.59 -9.81,36.33 -58.83,50.85 -146.26,42.79 -336.61,-28.26 -721.46,-42.79 -1153.68,-42.79 -624.23,0 -1039.29,8.07 -1245.18,23.41 -87.43,8.07 -140.57,-2.43 -160.15,-33.08 -17.16,-37.15 -3.28,-86.36 43.3,-146.09 777.02,-983.85 1433.95,-1861.99 1969.93,-2634.39 20.4,-29.87 31.04,-49.21 31.04,-58.92 0,-25.01 -70.27,-37.93 -210.8,-37.93l-583.38 0c-309.68,0 -531.9,45.21 -665.91,134.78 -107.03,71.05 -204.23,212.29 -291.65,422.94 -26.18,63.74 -64.57,83.93 -117.68,62.13 -50.68,-11.28 -70.26,-39.54 -57.17,-85.54 55.55,-220.35 83.28,-461.66 83.28,-723.16 0,-34.72 50.68,-49.24 151.2,-42.79 343.13,21.81 741.86,33.09 1196.98,33.09 440.4,0 783.54,-8.07 1028.65,-23.41 83.35,-4.82 130.73,4.03 141.36,28.26 14.71,29.87 0,72.62 -42.47,127.5 -721.46,901.55 -1365.34,1757.07 -1932.36,2565.8 -28.59,40.36 -42.47,72.66 -42.47,94.43 0,36.32 43.3,58.13 131.52,66.19 211.62,15.35 486.19,23.41 823.63,23.41 339.86,0 569.47,-37.93 688.77,-113.01 102.13,-65.38 187.9,-205.8 256.54,-423.73 18.78,-59.7 56.38,-82.32 111.94,-68.59 38.39,9.67 58.83,37.12 60.46,83.11zm3615.56 682.84c-8.94,42.75 -19.58,67.77 -31.01,75.87 -9.01,6.45 -31.87,4.82 -67.02,-4.86 -227.95,-40.36 -561.32,-45.21 -1000.06,-13.73 -83.32,6.45 -128.28,-9.68 -136.42,-47.61 -8.22,-44.39 17.95,-78.29 78.41,-101.7 172.4,-69.41 259.03,-133.96 259.03,-193.7 0,-23.41 -9.84,-57.31 -28.63,-101.7 -118.5,-279.24 -216.52,-503.63 -294.97,-673.92 -112.73,6.46 -312.1,9.67 -598.09,9.67 -236.1,0 -437.09,-6.46 -602.96,-19.37 -56.39,135.6 -134.01,325.27 -234.52,567.39 -22.86,55.7 -33.49,104.95 -33.49,149.34 0,87.97 48.24,152.52 145.43,193.7 150.37,62.95 223.88,111.37 220.64,144.46 -3.29,53.27 -53.94,75.08 -151.17,63.76 -299.87,-31.47 -577.65,-21.8 -832.61,28.27 -66.98,14.52 -104.58,-9.71 -112.73,-71.05 -6.56,-41.15 45.75,-84.75 155.27,-132.36 118.43,-48.42 218.12,-161.4 299.84,-338.19 310.48,-666.67 512.3,-1104.92 603,-1314.75 219.77,-502.84 375.84,-912.83 466.51,-1231.64 13.08,-49.24 75.99,-94.45 189.56,-137.21 26.96,-9.7 61.28,36.33 102.96,137.21 343.97,820.01 730.44,1696.52 1158.58,2629.54 68.61,147.7 183.83,246.16 346.42,295.4 73.55,20.16 106.25,50.03 98.03,87.18zm-1299.08 -1246.2c-105.42,-236.45 -269.63,-602.9 -493.51,-1099.25 -12.26,-26.65 -26.97,-40.36 -43.33,-40.36 -15.47,0 -29.39,13.71 -40.02,40.36l-457.57 1090.4c170.78,12.1 362,18.56 574.41,18.56 130.72,0 284.34,-3.25 460.02,-9.71zm4415.12 1298.66c0.8,36.29 -30.21,54.06 -93.95,54.06 -572.78,0 -1113.66,-484.25 -1622.67,-1454.39 -196.12,9.68 -300.71,14.53 -313.76,14.53l0 993.54c0,73.45 18.78,122.69 55.52,147.71 35.98,24.19 117.67,45.99 243.49,64.55 88.26,14.53 132.38,45.21 132.38,92 0,39.57 -7.35,64.59 -22.06,73.47 -13.88,9.67 -53.93,12.89 -119.26,9.67 -289.27,-12.91 -604.65,-6.45 -946.17,18.56 -68.64,4.85 -102.96,-22.59 -102.96,-82.32 0,-41.15 34.32,-64.56 102.96,-71.02 156.86,-16.13 235.31,-100.09 235.31,-252.62l0 -2265.54c0,-150.13 -89.08,-242.13 -266.38,-276.85 -87.43,-16.95 -131.52,-45.17 -131.52,-82.32 0,-58.92 29.42,-87.97 89.05,-87.97 17.16,0 36.77,1.61 57.17,4.86 65.4,9.67 165.08,14.52 299.05,14.52 44.96,0 157.73,-2.43 337.44,-7.28 180.58,-4.85 348.08,-7.24 502.52,-7.24 319.46,0 571.92,58.91 756.61,177.53 207.48,130.75 311.27,323.67 311.27,579.53 0,436.64 -254.92,724.77 -765.58,865.19 162.59,365.63 353.8,679.59 574.37,941.09 224.71,267.96 427.35,415.66 607.93,444.71 49.03,7.27 75.96,37.93 79.24,92.03zm-962.5 -2286.53c0,-233.27 -60.46,-399.53 -182.2,-498.81 -120.92,-99.27 -315.38,-149.31 -581.73,-149.31 -119.29,0 -200.19,16.14 -241.87,48.43 -40.84,32.29 -62.08,102.52 -62.08,209.04l0 1113.81c386.47,-12.1 664.25,-79.11 833.37,-200.98 156.06,-111.37 234.51,-285.7 234.51,-522.18zm4410.67 669.09c0,548.81 -183.82,964.47 -550.68,1248.59 -343.18,261.51 -820.32,392.26 -1431.5,392.26 -50.65,0 -166.66,-4.86 -347.25,-13.74 -179.75,-9.67 -318.65,-14.53 -415.88,-14.53 -131.56,0 -276.16,6.46 -436.3,18.56 -68.64,6.46 -102.96,-20.98 -102.96,-82.32 0,-41.15 34.32,-64.56 102.96,-71.02 156.86,-16.13 235.31,-100.09 235.31,-252.62l0 -2265.54c0,-85.57 -17.99,-142.85 -53.14,-172.72 -28.56,-23.41 -91.5,-46 -188.7,-66.19 -81.72,-16.13 -131.58,-29.05 -148.71,-40.36 -17.16,-10.49 -27.76,-34.69 -31.04,-71.02 -4.94,-37.93 12.22,-62.16 49.83,-73.44 8.18,-0.82 43.29,-4.03 105.37,-8.88 343.21,-22.59 798.29,-33.08 1364.52,-33.08 550.68,0 993.54,130.75 1328.53,392.25 346.42,271.17 519.64,642.44 519.64,1113.8zm-500.03 63.74c0,-914.43 -475.52,-1371.27 -1426.59,-1371.27 -223.85,0 -335.82,0 -335.82,0 -174.85,15.34 -263.07,63.77 -263.07,144.48l0 2193.72c0,154.94 41.68,258.25 124.99,309.92 82.52,52.46 248.4,78.29 497.62,78.29 934.67,0 1402.87,-451.98 1402.87,-1355.14zm-16576.33 3353.25l-520.71 0 0 -897.18 513.91 0 0 60.94 -392.48 0 0 342.03 368 0 0 60.91 -368 0 0 366.95 399.28 0 0 66.35zm1014.3 0l-150.89 0 -244.53 -388.9 -264 388.9 -100.4 0 320.9 -447.33 -293.07 -449.85 148.47 0 219.11 353.82 236.17 -353.82 102.07 0 -294.8 410.67 320.97 486.51zm1014.29 -47.57c-38.84,17.21 -78.83,31.71 -119.98,43.51 -41.44,11.54 -90.19,17.44 -146.95,17.44 -89.64,0 -168.47,-19.28 -236.55,-57.77 -68.37,-38.52 -120.82,-92.42 -157.45,-161.5 -36.88,-69.31 -55.32,-148.36 -55.32,-237.37 0,-62.75 10.5,-122.52 31.22,-178.95 20.71,-56.39 50.79,-106 89.91,-148.58 39.43,-42.79 88.8,-76.56 148.36,-101.25 59.57,-24.69 127.65,-37.14 203.96,-37.14 89.36,0 169.64,14.72 241.11,44.39l-34.01 57.08c-71.51,-26.95 -138.18,-40.52 -200.3,-40.52 -58.73,0 -113.46,14.03 -163.66,42.13 -50.51,28.06 -91.33,72.45 -122.26,133.17 -30.91,60.69 -46.51,136.36 -46.51,226.95 0,97.86 16.43,176.45 49.06,236.02 32.6,59.58 73.48,101.48 122.23,125.93 48.55,24.23 99.58,36.46 152.93,36.46 36.87,0 71.78,-4.98 104.65,-14.95 32.66,-9.97 66.12,-23.08 100.44,-39.41l39.12 54.36zm811.75 47.57l-475.79 0 0 -897.18 113.8 0 0 830.83 361.99 0 0 66.35zm976.56 -369.66c0,4.99 0.28,9.74 0.55,14.72 0.24,4.76 0.24,12.46 0.24,22.43 0,50.98 -7.59,101.7 -23.1,151.99 -15.26,50.53 -49.37,95.35 -101.89,134.76 -52.52,39.44 -129.2,59.14 -230.3,59.14 -52.28,0 -107.17,-9.97 -164.15,-29.9 -57.24,-19.93 -103.2,-60.26 -138.14,-120.75 -13.36,-24 -22.31,-51.64 -26.52,-82.88 -4.45,-31.48 -6.53,-69.54 -6.53,-114.16l0 -562.87 122.89 0 0 539.52c0,62.07 2.62,108.52 7.6,139.54 5.24,31.05 16.29,58.46 33.11,82.23 21.51,29.21 50.13,51.18 85.35,66.13 35.46,14.72 72.2,22.19 110.04,22.19 27.83,0 53.83,-3.37 78.48,-10.19 24.73,-7.02 47.03,-16.76 67.51,-29.68 20.23,-12.68 36.77,-28.06 49.61,-45.73 17.89,-24 30.49,-51.64 38.09,-83.38 7.39,-31.47 11.01,-79.04 11.01,-142.22l0 -538.41 86.15 0 0 527.52zm902.39 152.23c0,67.05 -28.56,122.52 -85.87,165.8 -57.35,43.24 -130,65.01 -218.22,65.01 -37.81,0 -72.96,-3.41 -105.73,-9.97 -32.73,-6.59 -59.97,-14.29 -81.62,-22.88 -21.68,-8.62 -41.74,-17.44 -60.28,-26.72l33.31 -57.08c42.82,18.56 79.52,32.39 110.18,41.67 30.66,9.28 66.06,14.03 105.69,14.03 39.61,0 73.48,-6.1 101.48,-18.55 27.73,-12.46 48.86,-29.68 63.39,-51.45 14.54,-21.96 21.69,-47.08 21.69,-75.4 0,-20.4 -3.97,-38.72 -11.64,-55.05 -7.66,-16.53 -22.2,-34.66 -43.57,-54.59 -21.44,-19.93 -54.69,-45.28 -99.65,-76.33l-84.28 -57.08c-46.51,-32.16 -81.9,-58.42 -105.93,-78.58 -24.35,-20.17 -46.27,-45.31 -66.06,-75.45 -19.54,-29.9 -29.35,-63.86 -29.35,-101.47 0,-40.29 12.99,-77.01 39.09,-110.06 26.17,-33.31 62.12,-59.57 108.35,-78.82 46.23,-19.28 98.02,-28.78 155.1,-28.78 70.82,0 136.87,12.23 198.19,36.49l-25.41 58.19c-31.94,-10.88 -60.77,-19.47 -86.39,-25.14 -25.35,-5.68 -53.62,-8.59 -84.53,-8.59 -58.94,0 -105.17,13.11 -138.7,39.17 -33.59,26.04 -50.23,58.89 -50.23,98.3 0,26.95 9.53,53.9 28.52,80.65 19.3,26.72 55.76,58.2 109.93,94.65l80.59 54.36c81.38,54.36 138.7,98.75 172.02,133.21 33.28,34.2 49.93,77.67 49.93,130.46zm470.99 217.43l-113.84 0 0 -897.18 113.84 0 0 897.18zm1120.88 -897.18l-365.68 897.18 -83.39 0 -369 -897.18 144.19 0 286.41 749.29 293.56 -749.29 93.91 0zm798.26 897.18l-488.02 0 0 -897.18 481.66 0 0 60.94 -367.86 0 0 342.03 344.9 0 0 60.91 -344.9 0 0 366.95 374.22 0 0 66.35zm1314.86 -836.24l-392.55 0 0 363.08 369.52 0 0 60.95 -369.52 0 0 412.21 -121.95 0 0 -897.18 514.5 0 0 60.94zm972.03 836.24l-127.06 0 -118.33 -329.1 -294.04 0 -115.33 329.1 -83.97 0 330.61 -897.18 75.99 0 332.13 897.18zm-265.83 -387.53l-125.58 -364.22 -129.03 364.22 254.61 0zm1169.56 133.41c0,42.13 -9.87,80.16 -29.66,114.16 -19.78,33.97 -44.02,61.15 -73.23,81.54 -30.63,21.74 -66.4,36.92 -106.9,45.51 -40.53,8.62 -98.68,12.91 -174.47,12.91l-195.94 0 0 -897.18 231.95 0c56.04,0 101,2.49 134.9,7.7 33.7,4.98 65.02,16.56 93.51,34.66 27.07,16.32 48.27,39.4 63.32,69.08 15.05,29.67 22.86,60.94 22.86,94.22 0,26.07 -5.66,53.48 -16.95,82.23 -11.33,28.79 -31.56,55.74 -60.77,81.08 -29.18,25.15 -68.99,43.97 -119.61,56.42 24.48,2.5 47.1,6.56 68.26,11.54 21.2,4.99 43.37,14.96 66.88,29.45 63.85,39.86 95.85,98.75 95.85,176.68zm-149.54 -422.91c0,-20.82 -3.73,-43.24 -11.5,-67.7 -7.56,-24.23 -20.99,-43.7 -40.29,-58.46 -17.92,-14.03 -39.09,-23.08 -63.12,-27.18 -24.24,-3.83 -59.8,-5.87 -106.65,-5.87l-99.38 0 0 341.8 75.14 0 13.88 0c27.55,0 54.62,-1.61 81,-4.76 26.62,-2.95 49,-9.31 67.36,-18.58 28.97,-14.96 50.14,-37.15 63.57,-66.59 13.19,-29.44 19.99,-60.26 19.99,-92.66zm26.87 421.53c0,-67.27 -22.17,-115.73 -66.16,-145.4 -21.68,-14.95 -47.1,-24.69 -76.07,-28.76 -28.96,-4.32 -71.81,-6.36 -129.06,-6.36l-76.52 0 0 375.11 97.96 0c84.28,0 142.26,-9.97 174.02,-29.9 28.49,-18.59 48.27,-43.05 59.32,-73.64 11.08,-30.56 16.51,-60.92 16.51,-91.05zm1092.22 255.5l-133.73 0 -294.11 -420.15 -65.46 0 0 420.15 -109.73 0 0 -897.18 197.32 0c38.16,0 68.75,0.68 91.81,2.06 23.1,1.35 45.72,4.76 68.34,10.62 22.58,5.68 45.19,14.72 67.53,26.95 65.74,36.04 98.68,95.15 98.68,178.06 0,58.66 -18.61,111.64 -55.79,158.53 -37.23,46.91 -99.58,78.16 -186.97,94.22l322.11 426.74zm-194.46 -670.21c0,-50.98 -10.6,-88.55 -31.84,-113.04 -21.2,-24.23 -46.37,-39.18 -75.79,-44.62 -29.45,-5.64 -67.6,-8.37 -114.7,-8.37l-76.51 0 0 361.73 64.29 0c30.35,0 56.97,-1.37 80.07,-4.1 22.82,-2.49 46.61,-10.19 71.33,-22.85 24.52,-12.46 44.51,-32.39 60.05,-59.57 15.29,-27.41 23.1,-63.67 23.1,-109.18zm670.53 670.21l-109.73 0 0 -897.18 109.73 0 0 897.18zm1052.76 -47.57c-36.5,17.21 -74.1,31.71 -112.81,43.51 -38.94,11.54 -84.8,17.44 -138.14,17.44 -84.28,0 -158.42,-19.28 -222.43,-57.77 -64.26,-38.52 -113.6,-92.42 -148.06,-161.5 -34.66,-69.31 -52,-148.36 -52,-237.37 0,-62.75 9.88,-122.52 29.35,-178.95 19.51,-56.39 47.76,-106 84.56,-148.58 37.05,-42.79 83.49,-76.56 139.46,-101.25 56.04,-24.69 120.02,-37.14 191.8,-37.14 84.01,0 159.49,14.72 226.68,44.39l-31.97 57.08c-67.23,-26.95 -129.93,-40.52 -188.35,-40.52 -55.18,0 -106.66,14.03 -153.86,42.13 -47.48,28.06 -85.87,72.45 -114.94,133.17 -29.08,60.69 -43.75,136.36 -43.75,226.95 0,97.86 15.47,176.45 46.16,236.02 30.63,59.58 69.06,101.48 114.91,125.93 45.65,24.23 93.61,36.46 143.78,36.46 34.66,0 67.46,-4.98 98.4,-14.95 30.7,-9.97 62.15,-23.08 94.44,-39.41l36.77 54.36zm873.42 -183.24c0,67.05 -28.04,122.52 -84.32,165.8 -56.32,43.24 -127.68,65.01 -214.35,65.01 -37.08,0 -71.61,-3.41 -103.79,-9.96 -32.18,-6.59 -58.91,-14.3 -80.17,-22.89 -21.31,-8.62 -41.02,-17.44 -59.19,-26.72l32.7 -57.08c42.02,18.56 78.1,32.39 108.21,41.67 30.11,9.28 64.88,14.04 103.79,14.04 38.92,0 72.17,-6.1 99.65,-18.56 27.24,-12.46 48,-29.67 62.29,-51.44 14.26,-21.97 21.3,-47.08 21.3,-75.41 0,-20.39 -3.9,-38.72 -11.42,-55.05 -7.57,-16.52 -21.83,-34.65 -42.82,-54.59 -21.03,-19.93 -53.72,-45.27 -97.85,-76.32l-82.8 -57.08c-45.68,-32.17 -80.42,-58.43 -104.03,-78.59 -23.9,-20.16 -45.41,-45.31 -64.88,-75.44 -19.2,-29.9 -28.8,-63.87 -28.8,-101.47 0,-40.3 12.71,-77.02 38.4,-110.07 25.69,-33.31 60.97,-59.57 106.38,-78.81 45.44,-19.28 96.3,-28.79 152.34,-28.79 69.54,0 134.41,12.23 194.63,36.49l-24.93 58.2c-31.38,-10.89 -59.7,-19.48 -84.87,-25.15 -24.89,-5.67 -52.65,-8.59 -83,-8.59 -57.87,0 -103.31,13.11 -136.25,39.18 -32.98,26.03 -49.31,58.88 -49.31,98.29 0,26.95 9.36,53.9 28.04,80.65 18.92,26.72 54.76,58.2 107.93,94.66l79.14 54.36c79.93,54.36 136.25,98.75 168.95,133.21 32.7,34.19 49.03,77.67 49.03,130.45z"/>
 </g>
</svg>
